<?xml version="1.0" standalone="no"?>
<!DOCTYPE svg PUBLIC "-//W3C//DTD SVG 20010904//EN"
 "http://www.w3.org/TR/2001/REC-SVG-20010904/DTD/svg10.dtd">
<svg version="1.0" xmlns="http://www.w3.org/2000/svg"
 width="3686.000000pt" height="2560.000000pt" viewBox="0 0 3686.000000 2560.000000"
 preserveAspectRatio="xMidYMid meet">

<g transform="translate(0.000000,2560.000000) scale(0.100000,-0.100000)"
fill="#0c5875" stroke="none">
<path d="M18514 24918 c-1088 -1224 -1457 -2602 -1124 -4203 65 -313 179 -705
287 -989 18 -49 31 -91 29 -93 -2 -3 -42 18 -89 46 -443 267 -933 335 -1411
196 -347 -101 -750 -320 -1101 -599 -496 -395 -796 -908 -879 -1503 -15 -109
-24 -103 109 -74 403 88 884 84 1259 -10 255 -63 568 -199 771 -334 281 -187
539 -453 715 -735 402 -643 514 -1518 295 -2300 -149 -534 -444 -1006 -830
-1328 -589 -492 -1458 -648 -2265 -405 -610 183 -1155 583 -1502 1103 -34 53
-74 116 -88 142 l-24 47 29 23 c172 134 377 336 476 468 117 156 198 322 241
498 29 116 31 337 5 462 -59 275 -180 504 -367 690 -250 251 -563 383 -905
383 -556 -1 -1065 -359 -1233 -868 -41 -123 -63 -255 -69 -416 -22 -537 262
-907 984 -1281 l155 -81 -6 -81 c-79 -978 -709 -1723 -1746 -2066 -517 -171
-1024 -174 -1525 -9 -142 47 -404 174 -530 256 -284 186 -535 448 -709 743
-565 951 -520 1810 140 2635 111 139 391 420 554 555 69 57 126 107 128 111 4
9 -179 173 -272 243 -275 207 -603 342 -947 391 -135 19 -412 22 -549 5 -456
-55 -908 -250 -1303 -562 -125 -99 -408 -381 -502 -501 l-69 -88 -56 163
c-184 531 -454 976 -818 1350 -670 687 -1561 990 -2477 842 -55 -9 -104 -20
-108 -24 -5 -4 47 -102 115 -216 1376 -2305 2442 -4902 3327 -8104 348 -1259
629 -2431 1020 -4248 16 -73 31 -136 34 -138 3 -3 100 37 216 90 3691 1675
7402 2611 11141 2811 978 52 2071 52 3055 0 3523 -187 7097 -1025 10690 -2508
267 -110 651 -274 812 -346 97 -43 113 -47 117 -33 3 9 39 175 80 367 717
3358 1438 5862 2333 8105 585 1466 1262 2843 2009 4083 l113 187 -127 0 c-656
-1 -1284 -118 -1768 -330 -843 -369 -1347 -972 -1547 -1852 -20 -84 -38 -170
-42 -191 l-6 -37 -55 72 c-141 186 -342 393 -521 535 -475 378 -1036 583
-1593 583 -466 0 -864 -130 -1215 -399 -75 -57 -255 -230 -255 -245 0 -6 36
-47 81 -91 119 -117 343 -367 456 -507 356 -444 544 -820 619 -1238 24 -129
24 -418 0 -555 -35 -210 -96 -404 -193 -625 -62 -141 -155 -314 -213 -400
-309 -455 -844 -802 -1440 -934 -353 -78 -728 -80 -1045 -6 -532 124 -1043
405 -1370 752 -285 303 -470 664 -549 1076 -21 109 -46 306 -46 364 0 13 33
34 123 79 659 331 958 664 1008 1127 24 222 -26 495 -132 721 -119 255 -348
484 -603 605 -305 145 -657 170 -956 67 -115 -39 -161 -60 -253 -114 -285
-169 -479 -412 -587 -734 -50 -151 -70 -267 -70 -410 0 -233 72 -443 228 -663
85 -120 285 -326 441 -455 67 -55 121 -103 121 -106 0 -11 -112 -184 -168
-259 -274 -368 -615 -649 -1032 -848 -833 -400 -1783 -349 -2525 135 -262 171
-499 408 -678 678 -317 479 -475 1118 -428 1735 71 935 435 1608 1106 2045
642 419 1310 539 2023 365 68 -16 128 -30 134 -30 25 0 -32 271 -102 483 -220
663 -710 1178 -1475 1548 -522 253 -987 302 -1434 152 -124 -41 -274 -112
-386 -181 -44 -28 -81 -49 -83 -47 -1 1 18 74 43 161 276 951 375 1924 279
2744 -124 1069 -557 1916 -1239 2425 -60 45 -115 85 -122 89 -7 4 -59 -47
-139 -136z"/>
<path d="M17530 6360 c-538 -18 -1038 -44 -1500 -81 -3629 -284 -6866 -1227
-9869 -2874 -127 -70 -231 -130 -231 -134 0 -8 58 -32 490 -203 4735 -1869
9560 -2618 14450 -2243 3361 258 6845 1063 10263 2371 195 74 225 89 210 99
-41 28 -420 229 -718 381 -2637 1343 -5471 2170 -8635 2518 -628 70 -1264 117
-2115 157 -286 13 -2000 20 -2345 9z"/>
</g>
</svg>
