<svg width="24" height="24" viewBox="0 0 24 24" fill="none" xmlns="http://www.w3.org/2000/svg">
<path d="M6.18173 12.2128C6.18173 11.5642 6.28946 10.9423 6.48173 10.359L3.11627 7.78906C2.46037 9.12081 2.09082 10.6214 2.09082 12.2128C2.09082 13.8028 2.45991 15.3025 3.11491 16.6333L6.47855 14.0583C6.28809 13.4778 6.18173 12.8582 6.18173 12.2128" fill="#FBBC05"/>
<path d="M12.0908 6.31204C13.4998 6.31204 14.7726 6.81133 15.7726 7.62835L18.6817 4.72338C16.9089 3.18012 14.6362 2.22693 12.0908 2.22693C8.13894 2.22693 4.74257 4.4869 3.11621 7.78903L6.48167 10.359C7.25712 8.00508 9.46757 6.31204 12.0908 6.31204" fill="#EB4335"/>
<path d="M12.0908 18.1135C9.46757 18.1135 7.25712 16.4205 6.48167 14.0665L3.11621 16.6361C4.74257 19.9386 8.13894 22.1986 12.0908 22.1986C14.5298 22.1986 16.8585 21.3326 18.6062 19.7099L15.4117 17.2402C14.5103 17.808 13.3753 18.1135 12.0908 18.1135" fill="#34A853"/>
<path d="M21.6363 12.2127C21.6363 11.6226 21.5454 10.9872 21.409 10.3971H12.0908V14.2553H17.4545C17.1863 15.5707 16.4563 16.5819 15.4117 17.2401L18.6063 19.7098C20.4422 18.0058 21.6363 15.4676 21.6363 12.2127" fill="#4285F4"/>
</svg>
